<svg xmlns="http://www.w3.org/2000/svg" viewBox="0 0 32 32" width="32" height="32">
  <defs>
    <linearGradient id="doorGradient" x1="0%" y1="0%" x2="100%" y2="100%">
      <stop offset="0%" style="stop-color:#4CAF50;stop-opacity:1" />
      <stop offset="100%" style="stop-color:#45a049;stop-opacity:1" />
    </linearGradient>
    <linearGradient id="frameGradient" x1="0%" y1="0%" x2="100%" y2="100%">
      <stop offset="0%" style="stop-color:#666;stop-opacity:1" />
      <stop offset="100%" style="stop-color:#333;stop-opacity:1" />
    </linearGradient>
  </defs>
  
  <!-- Door frame -->
  <rect x="4" y="2" width="24" height="28" rx="2" ry="2" fill="url(#frameGradient)" stroke="#222" stroke-width="0.5"/>
  
  <!-- Door -->
  <rect x="6" y="4" width="20" height="24" rx="1" ry="1" fill="url(#doorGradient)" stroke="#2e7d32" stroke-width="0.5"/>
  
  <!-- Door handle/keypad -->
  <circle cx="22" cy="16" r="2.5" fill="#333" stroke="#555" stroke-width="0.5"/>
  <circle cx="22" cy="16" r="1.5" fill="#444"/>
  
  <!-- Keypad dots -->
  <circle cx="21.5" cy="15" r="0.3" fill="#4CAF50"/>
  <circle cx="22.5" cy="15" r="0.3" fill="#4CAF50"/>
  <circle cx="21.5" cy="16" r="0.3" fill="#4CAF50"/>
  <circle cx="22.5" cy="16" r="0.3" fill="#4CAF50"/>
  <circle cx="21.5" cy="17" r="0.3" fill="#4CAF50"/>
  <circle cx="22.5" cy="17" r="0.3" fill="#4CAF50"/>
  
  <!-- Door panels -->
  <rect x="8" y="6" width="16" height="8" rx="0.5" ry="0.5" fill="none" stroke="#2e7d32" stroke-width="0.3" opacity="0.6"/>
  <rect x="8" y="18" width="16" height="8" rx="0.5" ry="0.5" fill="none" stroke="#2e7d32" stroke-width="0.3" opacity="0.6"/>
  
  <!-- Security indicator -->
  <circle cx="10" cy="8" r="1" fill="#FF5722" opacity="0.8"/>
  <circle cx="10" cy="8" r="0.5" fill="#FF8A65"/>
</svg>
